<?xml version="1.0" encoding="UTF-8" standalone="no"?>
<!-- Generator: Adobe Illustrator 13.0.0, SVG Export Plug-In . SVG Version: 6.00 Build 14948)  -->

<svg
   xmlns:dc="http://purl.org/dc/elements/1.1/"
   xmlns:cc="http://creativecommons.org/ns#"
   xmlns:rdf="http://www.w3.org/1999/02/22-rdf-syntax-ns#"
   xmlns:svg="http://www.w3.org/2000/svg"
   xmlns="http://www.w3.org/2000/svg"
   xmlns:sodipodi="http://sodipodi.sourceforge.net/DTD/sodipodi-0.dtd"
   xmlns:inkscape="http://www.inkscape.org/namespaces/inkscape"
   version="1.1"
   id="Ebene_1"
   x="0px"
   y="0px"
   width="461.10236"
   height="461.10236"
   viewBox="0 0 432.28345 432.28345"
   enable-background="new 0 0 270.138 270.124"
   xml:space="preserve"
   sodipodi:version="0.32"
   inkscape:version="0.92+devel unknown"
   sodipodi:docname="b1-systems_2016-06.svg"
   inkscape:output_extension="org.inkscape.output.svg.inkscape"
   inkscape:export-filename="/home/phil/b1-svn/marketing/graphics/logos/logos_int/b1_logo/b1-systems_1024.png"
   inkscape:export-xdpi="213.19"
   inkscape:export-ydpi="213.19"><title
     id="title5314">B1 Systems Logo</title><metadata
     id="metadata42"><rdf:RDF><cc:Work
         rdf:about=""><dc:format>image/svg+xml</dc:format><dc:type
           rdf:resource="http://purl.org/dc/dcmitype/StillImage" /><dc:title>B1 Systems Logo</dc:title><dc:creator><cc:Agent><dc:title>marketing@b1-systems.de</dc:title></cc:Agent></dc:creator><dc:publisher><cc:Agent><dc:title>B1 Systems GmbH</dc:title></cc:Agent></dc:publisher></cc:Work></rdf:RDF></metadata><defs
     id="defs40" /><sodipodi:namedview
     inkscape:window-height="710"
     inkscape:window-width="1364"
     inkscape:pageshadow="2"
     inkscape:pageopacity="0.0"
     guidetolerance="10.0"
     gridtolerance="10.0"
     objecttolerance="10.0"
     borderopacity="1.0"
     bordercolor="#666666"
     pagecolor="#ffffff"
     id="base"
     showgrid="false"
     inkscape:zoom="1.4142136"
     inkscape:cx="79.923226"
     inkscape:cy="260.43936"
     inkscape:window-x="0"
     inkscape:window-y="27"
     inkscape:current-layer="Ebene_1"
     units="mm"
     inkscape:window-maximized="0"
     fit-margin-top="0"
     fit-margin-left="0"
     fit-margin-right="0"
     fit-margin-bottom="0"
     inkscape:snap-intersection-paths="true"
     inkscape:object-nodes="true"
     inkscape:snap-smooth-nodes="true"
     inkscape:document-rotation="0" /><path
     style="fill:#224779"
     d="m 4.0703125,5.2070312 v 129.4843788 34.54297 51.8125 129.43554 c 86.3196995,0 164.0253875,0.0488 164.0253875,0.0488 43.15907,0 43.12891,-43.17773 43.12891,-43.17773 V 177.86914 c 0,0 0.0255,-37.22193 -34.5293,-42.54102 0.007,-0.18797 0.0371,-0.63671 0.0371,-0.63671 V 48.384766 c 0,0 -0.0186,-43.1777348 -43.17773,-43.1777348 z M 47.248047,48.384766 H 116.2832 c 17.27116,0 17.27149,17.271484 17.27149,17.271484 0.006,23.7351 0.006,28.022061 0,51.76367 0,0 -3.3e-4,17.27149 -17.27149,17.27149 -25.136369,-3e-5 -41.162522,-2e-5 -69.035153,0 z m 0,129.484374 h 94.941403 c 25.89419,0 25.90625,25.90625 25.90625,25.90625 v 77.67188 c 0,-2e-4 -0.0121,25.90625 -25.90625,25.90625 H 47.248047 Z"
     id="path5"
     inkscape:connector-curvature="0" /><path
     style="fill:#ffffff;fill-opacity:1;fill-rule:evenodd;stroke:none;stroke-width:1px;stroke-linecap:butt;stroke-linejoin:miter;stroke-opacity:1"
     d="M 341.50195,93.708984 V 349.75586 h 84.47071 L 374.51562,212.5332 v -77.5625 z"
     id="rect5242"
     inkscape:connector-curvature="0" /><path
     style="fill:#f7b234;stroke:none;stroke-width:2.28403282;stroke-linejoin:round"
     d="M 339.59961,58.4707 211.89844,90.39648 h 127.70117 z"
     id="polyline13"
     inkscape:connector-curvature="0" /><path
     style="fill:#ffffff;fill-opacity:1;fill-rule:evenodd;stroke:none;stroke-width:1px;stroke-linecap:butt;stroke-linejoin:miter;stroke-opacity:1"
     d="m 366.64062,22.480469 c -9.53679,0 -17.26367,7.732731 -17.26367,17.269531 0,9.5305 7.72686,17.259766 17.26367,17.259766 9.53683,0 17.25977,-7.729265 17.25977,-17.259766 0,-9.5368 -7.72295,-17.269531 -17.25977,-17.269531 z m 0,8.628906 c 4.77783,0 8.63672,3.869025 8.63672,8.640625 0,4.759 -3.85889,8.630859 -8.63672,8.630859 -4.75898,0 -8.62109,-3.871859 -8.62109,-8.630859 0,-4.7716 3.86211,-8.640625 8.62109,-8.640625 z"
     id="path5292"
     inkscape:connector-curvature="0" /><path
     style="fill:#000000;fill-opacity:1;stroke:none;stroke-width:2.28403282;stroke-linecap:round;stroke-linejoin:round"
     d="m 340.74609,4.0703125 c -0.21888,1.568e-4 -0.43311,0.063205 -0.61718,0.1816406 L 202.0293,90.5625 c -1.02953,0.663807 -0.49503,2.116319 0.59179,2.119141 h 136.97852 v 257.835939 0.002 c 8.3e-4,0.62961 0.51101,1.1398 1.14062,1.14063 h 86.33204 c 0.32376,-0.001 0.63185,-0.1395 0.84765,-0.38086 h 0.25 l -0.0879,-0.23242 c 0.0854,-0.1627 0.1303,-0.3436 0.13086,-0.52735 V 57.009816 C 428.21624,30.734613 414.90933,17.283545 401.6875,10.673828 388.46567,4.0641115 375.27734,4.078125 375.27734,4.078125 h -34.40429 c -0.0421,-0.00496 -0.0845,-0.00757 -0.12696,-0.00781 z m 25.89453,18.4101565 c 9.53682,0 17.25977,7.732731 17.25977,17.269531 0,9.5305 -7.72294,17.259766 -17.25977,17.259766 -9.53681,0 -17.26367,-7.729266 -17.26367,-17.259766 0,-9.5368 7.72687,-17.269531 17.26367,-17.269531 z m 0,8.628906 c -4.75898,0 -8.62109,3.869025 -8.62109,8.640625 0,4.759 3.86211,8.630859 8.62109,8.630859 4.77783,0 8.63672,-3.871859 8.63672,-8.630859 0,-4.7716 -3.85889,-8.640625 -8.63672,-8.640625 z M 339.59961,58.470703 V 90.396484 H 211.89844 Z m 1.90234,35.238281 33.01367,41.261716 v 77.5625 l 51.45704,137.22266 h -84.47071 z"
     id="polyline15-7"
     inkscape:connector-curvature="0" /><path
     id="path33"
     style="fill:#1a171b"
     d="m 397.66373,419.24694 c 2.98634,1.9014 7.2743,3.3616 11.86215,3.3616 6.82054,0 10.80704,-3.5202 10.80704,-8.8067 0,-4.7464 -2.76025,-7.5805 -9.72053,-10.1806 -8.42676,-3.0664 -13.64579,-7.5067 -13.64579,-14.6946 0,-8.0468 6.67923,-14.021 16.71378,-14.021 5.19548,0 9.1019,1.2137 11.32831,2.5263 l -1.83388,5.4467 c -1.6125,-1.0065 -5.06673,-2.4651 -9.73937,-2.4651 -7.03407,0 -9.71581,4.2204 -9.71581,7.7406 0,4.8202 3.12765,7.2005 10.26064,9.9608 8.73293,3.4354 13.09468,7.5679 13.09468,15.1609 0,7.9479 -5.82666,14.9286 -18.00126,14.9286 -4.9741,0 -10.40823,-1.5215 -13.16848,-3.3726 z m -40.22768,-14.5611 c -0.39881,-7.188 -0.85257,-15.9225 -0.85257,-22.2767 h -0.14759 c -1.84016,5.9742 -3.91898,12.4745 -6.50808,19.6012 l -9.10819,25.0353 h -5.06673 l -8.4142,-24.569 c -2.44779,-7.3606 -4.44025,-13.9472 -5.88789,-20.0675 h -0.15387 c -0.16015,6.428 -0.5464,15.0133 -1.00644,22.8152 l -1.38012,22.1291 h -6.34794 l 3.59397,-51.6047 h 8.50055 l 8.80045,24.9506 c 2.14005,6.3667 3.82163,12.0207 5.20019,17.3936 h 0.16015 c 1.36128,-5.2128 3.22028,-10.8683 5.52049,-17.3936 l 9.18198,-24.9506 h 8.50683 l 3.22029,51.6047 h -6.59288 z m -77.52397,-1.5325 h -19.98273 v 18.6199 h 22.34888 v 5.5817 H 253.1826 v -51.6046 h 27.95573 v 5.5817 h -21.20898 v 16.315 h 19.98273 z m -77.89922,-21.7365 h -15.70734 v -5.6665 h 38.22893 v 5.6665 h -15.78741 v 45.9381 h -6.73418 v -45.9381 z m -71.40213,37.8301 c 2.98634,1.9014 7.28686,3.3616 11.87314,3.3616 6.8331,0 10.7882,-3.5202 10.7882,-8.8067 0,-4.7464 -2.75397,-7.5805 -9.70954,-10.1806 -8.43303,-3.0664 -13.64579,-7.5067 -13.64579,-14.6946 0,-8.0468 6.66039,-14.021 16.71378,-14.021 5.1892,0 9.12074,1.2137 11.31575,2.5263 l -1.83388,5.4467 c -1.60151,-1.0065 -5.04161,-2.4651 -9.70954,-2.4651 -7.05919,0 -9.74564,4.2204 -9.74564,7.7406 0,4.8202 3.14649,7.2005 10.26692,9.9608 8.73293,3.4354 13.08212,7.5679 13.08212,15.1609 0,7.9479 -5.82038,14.9286 -17.97614,14.9286 -4.98038,0 -10.42079,-1.5215 -13.16848,-3.3726 z m -51.108509,8.108 v -21.8951 l -16.382483,-29.7095 h 7.654266 l 7.268019,14.2408 c 1.92652,3.9002 3.526457,7.0404 5.134246,10.6344 h 0.15387 c 1.386403,-3.3616 3.220287,-6.7342 5.219031,-10.6344 l 7.439161,-14.2408 h 7.476839 l -17.235046,29.6357 v 21.9689 z m -73.0711496,-8.108 c 2.9926214,1.9014 7.2680186,3.3616 11.8684296,3.3616 6.814259,0 10.800757,-3.5202 10.800757,-8.8067 0,-4.7464 -2.760246,-7.5805 -9.733085,-10.1806 -8.414197,-3.0664 -13.6285182,-7.5067 -13.6285182,-14.6946 0,-8.0468 6.6541082,-14.021 16.6949342,-14.021 5.212751,0 9.114464,1.2137 11.340874,2.5263 l -1.840164,5.4467 c -1.595227,-1.0065 -5.041609,-2.4651 -9.720524,-2.4651 -7.052915,0 -9.726806,4.2204 -9.726806,7.7406 0,4.8202 3.146493,7.2005 10.248081,9.9608 8.739208,3.4354 13.100962,7.5679 13.100962,15.1609 0,7.9479 -5.814102,14.9286 -17.988701,14.9286 -4.980377,0 -10.427073,-1.5215 -13.1857488,-3.3726 z"
     inkscape:connector-curvature="0" /></svg>