<?xml version="1.0" encoding="UTF-8" standalone="no"?>
<svg
   xmlns:dc="http://purl.org/dc/elements/1.1/"
   xmlns:cc="http://creativecommons.org/ns#"
   xmlns:rdf="http://www.w3.org/1999/02/22-rdf-syntax-ns#"
   xmlns:svg="http://www.w3.org/2000/svg"
   xmlns="http://www.w3.org/2000/svg"
   xmlns:xlink="http://www.w3.org/1999/xlink"
   xmlns:sodipodi="http://sodipodi.sourceforge.net/DTD/sodipodi-0.dtd"
   viewBox="0 0 100 100"
   id="svg899"
   version="1.1"
   sodipodi:docname="mastodon.svg"
   >
  <sodipodi:namedview
     pagecolor="#ffffff"
     bordercolor="#666666"
     borderopacity="1"
     objecttolerance="10"
     gridtolerance="10"
     guidetolerance="10"
     id="namedview868"
     showgrid="false"
      />
  <metadata
     id="metadata903">
    <rdf:RDF>
      <cc:Work
         rdf:about="">
        <dc:format>image/svg+xml</dc:format>
        <dc:type
           rdf:resource="http://purl.org/dc/dcmitype/StillImage" />
        <dc:title />
      </cc:Work>
    </rdf:RDF>
  </metadata>
  <defs
     id="defs891">
    <g
       id="Layer0_0_FILL">
      <path
         id="path887"
         d=" M 280.35 204.05 Q 280.35 202.3 279.1 201.05 277.85 199.8 276.1 199.8 274.35 199.8 273.1 201.05 271.85 202.3 271.85 204.05 271.85 205 272.25 205.8 272.55 206.5 273.1 207.05 274.35 208.3 276.1 208.3 277.85 208.3 279.1 207.05 279.65 206.5 280 205.8 280.35 205 280.35 204.05 M 273.1 187.05 Q 271.85 188.3 271.85 190.05 271.85 191.8 273.1 193.05 274.35 194.3 276.1 194.3 277.85 194.3 279.1 193.05 279.5 192.65 279.8 192.2 280.35 191.25 280.35 190.05 280.35 188.3 279.1 187.05 278.75 186.7 278.35 186.45 277.35 185.8 276.1 185.8 274.35 185.8 273.1 187.05 M 276.1 171.8 Q 274.35 171.8 273.1 173.05 271.85 174.3 271.85 176.05 271.85 177.8 273.1 179.05 274.35 180.3 276.1 180.3 277.85 180.3 279.1 179.05 280.35 177.8 280.35 176.05 280.35 174.3 279.1 173.05 277.85 171.8 276.1 171.8 M 236.1 208.55 Q 234.85 207.3 233.1 207.3 231.35 207.3 230.1 208.55 228.85 209.8 228.85 211.55 228.85 213.3 230.1 214.55 231.35 215.8 233.1 215.8 234.85 215.8 236.1 214.55 237.35 213.3 237.35 211.55 237.35 209.8 236.1 208.55 M 230.1 194.55 Q 228.85 195.8 228.85 197.55 228.85 199.3 230.1 200.55 231.35 201.8 233.1 201.8 234.35 201.8 235.35 201.15 235.75 200.9 236.1 200.55 237.35 199.3 237.35 197.55 237.35 196.35 236.8 195.4 236.5 194.95 236.1 194.55 234.85 193.3 233.1 193.3 231.35 193.3 230.1 194.55 M 236.1 180.55 Q 234.85 179.3 233.1 179.3 231.35 179.3 230.1 180.55 229.55 181.1 229.25 181.8 228.85 182.6 228.85 183.55 228.85 185.3 230.1 186.55 231.35 187.8 233.1 187.8 234.85 187.8 236.1 186.55 237.35 185.3 237.35 183.55 237.35 182.6 237 181.8 236.65 181.1 236.1 180.55 M 318.6 207.3 Q 316.85 207.3 315.6 208.55 314.35 209.8 314.35 211.55 314.35 213.3 315.6 214.55 316.85 215.8 318.6 215.8 320.35 215.8 321.6 214.55 322.85 213.3 322.85 211.55 322.85 209.8 321.6 208.55 320.35 207.3 318.6 207.3 M 321.6 194.55 Q 320.35 193.3 318.6 193.3 316.85 193.3 315.6 194.55 315.2 194.95 314.9 195.4 314.35 196.35 314.35 197.55 314.35 199.3 315.6 200.55 315.95 200.9 316.35 201.15 317.35 201.8 318.6 201.8 320.35 201.8 321.6 200.55 322.85 199.3 322.85 197.55 322.85 195.8 321.6 194.55 M 314.7 181.8 Q 314.35 182.6 314.35 183.55 314.35 185.3 315.6 186.55 316.85 187.8 318.6 187.8 320.35 187.8 321.6 186.55 322.85 185.3 322.85 183.55 322.85 182.6 322.45 181.8 322.15 181.1 321.6 180.55 320.35 179.3 318.6 179.3 316.85 179.3 315.6 180.55 315.05 181.1 314.7 181.8 Z"
         stroke="none"
         fill="white" />
    </g>
    <path
       d=" M 334.35 213.3 L 334.35 181.9 Q 334.35 181.85 334.35 181.8 334.15 175.65 329.85 171.35 325.3 166.8 318.85 166.8 312.4 166.8 307.9 171.35 303.5 175.7 303.35 181.9 L 303.35 214.8 Q 303 223.05 296.35 228.8 L 318.35 228.8 Q 318.6 228.8 318.85 228.8 325.3 228.8 329.85 224.3 334.35 219.75 334.35 213.3 Z M 351.2 197.5 Q 351.2 228.55 329.25 250.5 307.3 272.45 276.25 272.45 245.25 272.45 223.3 250.5 201.35 228.55 201.35 197.5 201.35 166.5 223.3 144.55 245.25 122.55 276.25 122.55 307.3 122.55 329.25 144.55 351.2 166.5 351.2 197.5 Z M 217.35 213.3 L 217.35 181.9 Q 217.35 181.85 217.35 181.8 217.55 175.65 221.85 171.35 226.4 166.8 232.85 166.8 239.3 166.8 243.8 171.35 248.2 175.7 248.35 181.9 L 248.35 214.8 Q 248.7 223.05 255.35 228.8 L 233.35 228.8 Q 233.1 228.8 232.85 228.8 226.4 228.8 221.85 224.3 217.35 219.75 217.35 213.3 Z M 260.35 174.3 L 260.35 205.7 Q 260.35 205.75 260.35 205.8 260.55 211.95 264.85 216.25 269.4 220.8 275.85 220.8 282.3 220.8 286.8 216.25 291.2 211.9 291.35 205.7 L 291.35 172.8 Q 291.7 164.55 298.35 158.8 L 276.35 158.8 Q 276.1 158.8 275.85 158.8 269.4 158.8 264.85 163.3 260.35 167.85 260.35 174.3 Z"
       fill="none"
       stroke-miterlimit="3"
       stroke-linecap="round"
       stroke-linejoin="miter"
       stroke-width="4"
       stroke="white"
       id="Layer0_0_1_STROKES" />
  </defs>
  <g
     id="g872"
     transform="matrix(1.2351757,0,0,1.2586523,-10.042372,-11.404917)">
    <use
       y="0"
       x="0"
       id="use893"
       xlink:href="#Layer0_0_FILL"
       transform="matrix(0.52842775,0,0,0.50807109,-97.047903,-51.777426)"
       width="100%"
       height="100%" />
    <use
       y="0"
       x="0"
       id="use895"
       xlink:href="#Layer0_0_1_STROKES"
       transform="matrix(0.52842775,0,0,0.50807109,-97.047903,-51.777426)"
       width="100%"
       height="100%" />
  </g>
</svg>
