<?xml version="1.0" encoding="UTF-8" standalone="no"?>
<!-- Generator: Adobe Illustrator 14.0.0, SVG Export Plug-In  -->

<svg
   xmlns:dc="http://purl.org/dc/elements/1.1/"
   xmlns:cc="http://creativecommons.org/ns#"
   xmlns:rdf="http://www.w3.org/1999/02/22-rdf-syntax-ns#"
   xmlns:svg="http://www.w3.org/2000/svg"
   xmlns="http://www.w3.org/2000/svg"
   xmlns:sodipodi="http://sodipodi.sourceforge.net/DTD/sodipodi-0.dtd"
   xmlns:inkscape="http://www.inkscape.org/namespaces/inkscape"
   version="1.1"
   x="0px"
   y="0px"
   width="686.18805"
   height="191.18677"
   viewBox="0 0 686.19 191.18677"
   enable-background="new -42.099 -9.411 750 200"
   xml:space="preserve"
   id="svg2"
   inkscape:version="0.92.3 (2405546, 2018-03-11)"
   sodipodi:docname="pluckeye.svg"><metadata
     id="metadata30"><rdf:RDF><cc:Work
         rdf:about=""><dc:format>image/svg+xml</dc:format><dc:type
           rdf:resource="http://purl.org/dc/dcmitype/StillImage" /><dc:title></dc:title></cc:Work></rdf:RDF></metadata><sodipodi:namedview
     pagecolor="#ffffff"
     bordercolor="#666666"
     borderopacity="1"
     objecttolerance="10"
     gridtolerance="10"
     guidetolerance="10"
     inkscape:pageopacity="0"
     inkscape:pageshadow="2"
     inkscape:window-width="1920"
     inkscape:window-height="1031"
     id="namedview28"
     showgrid="false"
     fit-margin-top="0"
     fit-margin-left="0"
     fit-margin-right="0"
     fit-margin-bottom="0"
     inkscape:zoom="0.44533333"
     inkscape:cx="-88.043686"
     inkscape:cy="95.59337"
     inkscape:window-x="0"
     inkscape:window-y="0"
     inkscape:window-maximized="1"
     inkscape:current-layer="svg2" /><defs
     id="defs4" /><path
     d="m 145.61875,146.43082 c 0,6.15645 -5.32372,11.48006 -11.48017,11.48006 -6.48901,0 -11.14739,-5.32361 -11.14739,-11.48006 V 38.952995 c 0,-6.322719 4.65838,-11.147401 11.14739,-11.147401 6.15545,0 11.48017,4.824682 11.48017,11.147401 z"
     id="path6"
     inkscape:connector-curvature="0" /><path
     d="m 216.32874,77.884176 c 0,-6.155351 5.32372,-10.981066 11.48006,-10.981066 6.48901,0 10.98111,4.825715 10.98111,10.981066 v 68.546644 c 0,6.15645 -4.4921,11.48006 -10.98111,11.48006 -3.82665,0 -7.48702,-2.1633 -9.48304,-5.15733 -5.82367,3.3277 -12.64435,5.15733 -19.79881,5.15733 -22.79373,0 -41.26086,-18.46802 -41.26086,-41.09447 V 78.384203 c 0,-6.489043 4.99205,-11.48006 11.31378,-11.48006 6.32162,0 11.48006,4.991017 11.48006,11.48006 v 38.432207 c 0,10.14838 8.48503,17.96907 18.46702,17.96907 9.9821,0 17.80179,-7.81969 17.80179,-17.96907 z"
     id="path8"
     inkscape:connector-curvature="0" /><path
     d="m 291.86761,157.91088 c -25.62148,0 -45.58657,-20.29776 -45.58657,-45.2549 0,-25.621434 19.96509,-45.75287 45.58657,-45.75287 7.32074,0 14.3087,1.663328 20.9631,4.991017 5.65739,3.162387 7.98608,10.482061 4.82466,15.972083 -3.3277,5.657379 -9.64932,7.986036 -15.30671,4.99205 -3.16142,-1.663328 -7.32074,-2.496025 -10.48205,-2.496025 -12.81074,0 -22.62745,9.650405 -22.62745,22.293745 0,12.1464 9.81571,21.79583 22.62745,21.79583 3.16131,0 7.32063,-0.83173 10.48205,-2.32869 5.65739,-2.66236 11.97901,-0.66634 15.30671,4.65838 3.16142,5.65739 0.83173,12.97813 -4.82466,16.30472 -6.6554,2.99503 -13.64236,4.82466 -20.9631,4.82466 z"
     id="path10"
     inkscape:connector-curvature="0" /><path
     d="m 403.67318,141.27349 c 3.3277,5.65739 0.49906,12.1464 -4.65827,15.14043 -5.82378,3.3277 -12.97813,0.83162 -16.13844,-4.82466 l -25.95415,-34.93924 -7.65341,5.32372 v 24.45708 c 0,6.15645 -5.32361,11.48006 -11.48006,11.48006 -6.48801,0 -11.14628,-5.32361 -11.14628,-11.48006 V 38.952995 c 0,-6.322719 4.65827,-11.147401 11.14628,-11.147401 6.15645,0 11.48006,4.824682 11.48006,11.147401 v 54.570594 l 35.93725,-24.124454 c 4.99105,-3.993018 12.97702,-2.32969 16.13844,2.32969 3.82565,5.656346 2.32858,12.977064 -3.16242,16.803747 l -21.96111,14.974088 z"
     id="path12"
     inkscape:connector-curvature="0" /><path
     d="m 472.39037,100.84431 c -2.66136,-4.824696 -6.82168,-8.152385 -12.31168,-10.148372 -1.99702,-0.832697 -3.99304,-0.832697 -5.99006,-0.832697 -12.1454,0 -22.46017,10.315729 -22.46017,22.461069 0,12.31179 10.31477,22.29378 22.46017,22.29378 3.16242,0 6.6554,-1.16429 9.98299,-2.66125 5.65739,-2.66236 13.14341,-0.66645 15.80577,4.82466 2.66136,5.32372 0.66534,12.81074 -4.82466,15.4731 -6.6554,3.49398 -14.3087,5.65739 -20.9641,5.65739 -25.12142,0 -45.58657,-20.63043 -45.58657,-45.58657 0,-25.289841 20.46515,-45.421277 45.58657,-45.421277 42.25987,1.496993 44.92123,39.264827 44.92123,45.421277 0,6.15534 -5.82378,11.64534 -11.81273,11.64534 h -32.60955 c -6.48801,0 -11.31367,-5.49 -11.31367,-11.64534 0,-6.82168 4.82566,-11.48008 11.31367,-11.48008 h 17.80279 z"
     id="path14"
     inkscape:connector-curvature="0" /><path
     d="m 565.56464,78.384203 c 0,-6.322708 4.99205,-11.48006 11.31378,-11.48006 6.32162,0 11.31367,5.157352 11.31367,11.48006 v 79.527787 c 0,18.63341 -14.97404,33.27478 -33.60745,33.27478 h -7.98608 c -6.15534,0 -11.31267,-5.15733 -11.31267,-11.31267 0,-6.32273 5.15733,-11.14739 11.31267,-11.14739 h 7.98608 c 6.15534,0 10.98,-4.65838 10.98,-10.81472 v -4.15943 c -5.32361,2.66236 -11.31267,4.15943 -17.80168,4.15943 -22.79384,0 -41.26097,-18.46813 -41.26097,-41.09458 V 78.385236 c 0,-6.489043 4.99105,-11.48006 11.31278,-11.48006 6.32273,0 11.48006,4.991017 11.48006,11.48006 v 38.432174 c 0,10.14838 8.48503,17.96907 18.46702,17.96907 9.9831,0 17.80179,-7.81969 17.80179,-17.96907 V 78.384203 Z"
     id="path16"
     inkscape:connector-curvature="0" /><path
     d="m 659.56953,100.84431 c -2.66125,-4.824696 -6.82168,-8.152385 -12.31168,-10.148372 -1.99702,-0.832697 -3.99304,-0.832697 -5.99006,-0.832697 -12.1454,0 -22.46006,10.315729 -22.46006,22.461069 0,12.31179 10.31466,22.29378 22.46006,22.29378 3.16242,0 6.6554,-1.16429 9.9831,-2.66125 5.65739,-2.66236 13.14341,-0.66645 15.80577,4.82466 2.66125,5.32372 0.66523,12.81074 -4.82477,15.4731 -6.65529,3.49398 -14.3087,5.65739 -20.9641,5.65739 -25.12142,0 -45.58657,-20.63043 -45.58657,-45.58657 0,-25.289841 20.46515,-45.421277 45.58657,-45.421277 42.25987,1.496993 44.92123,39.264827 44.92123,45.421277 0,6.15534 -5.82367,11.64534 -11.81273,11.64534 h -32.60955 c -6.48801,0 -11.31367,-5.49 -11.31367,-11.64534 0,-6.82168 4.82566,-11.48008 11.31367,-11.48008 h 17.80279 z"
     id="path18"
     inkscape:connector-curvature="0" /><path
     d="m 93.208361,28.712678 -8.942715,23.461191 c 6.562397,8.976804 8.571824,20.980672 4.29883,32.190053 C 81.853305,101.97041 62.279755,110.7406 44.673268,104.02839 27.064715,97.318249 18.295567,77.742633 25.008803,60.135113 29.54008,48.246974 39.937435,40.398338 51.631359,38.612061 L 60.408772,15.588917 C 36.22336,14.027866 12.839646,28.187848 3.7502295,52.031304 -7.4219625,81.343067 7.2597485,114.11162 36.568415,125.28589 65.878123,136.45916 98.649821,121.77747 109.82302,92.467742 118.68414,69.22247 111.27043,43.811777 93.208361,28.712678 Z"
     id="path20"
     inkscape:connector-curvature="0"
     style="fill:#09476b" /><path
     d="m 84.968174,0.77392782 v 0 C 78.879979,-1.5464678 72.013835,1.5291407 69.691377,7.617335 L 57.064543,40.741327 c -2.322458,6.089228 0.75419,12.955371 6.843418,15.275764 v 0 c 6.087162,2.322459 12.954327,-0.753145 15.275753,-6.843406 L 91.810547,16.04969 C 94.131973,9.9614914 91.056369,3.0963883 84.968174,0.77392782 Z"
     id="path22"
     inkscape:connector-curvature="0"
     style="fill:#09476b" /><path
     d="m 22.705971,110.04938 c 0.004,-0.12185 0.01855,-0.2407 0.01855,-0.36466 V 74.236213 c 0,-6.515901 -5.106724,-11.835456 -11.361253,-11.835456 -6.2555605,0 -11.3622875,5.319555 -11.3622875,11.835456 v 35.449507 c 0,0.15195 0.01756,0.30068 0.02169,0.45152 -0.0021,0.12196 -0.01756,0.2407 -0.01756,0.36366 v 35.44952 c 0,6.51489 5.106728,11.8355 11.3612555,11.8355 6.254528,0 11.362285,-5.32061 11.362285,-11.8355 V 110.5009 c 0,-0.15295 -0.01655,-0.30068 -0.02277,-0.45152 z"
     id="path24"
     inkscape:connector-curvature="0"
     style="fill:#09476b" /><path
     d="m 52.570466,85.838189 v 0 c -6.11196,-2.32969 -9.17414,-9.165865 -6.843406,-15.27783 v 0 c 2.32969,-6.109888 9.164832,-9.173096 15.275753,-6.843406 v 0 c 6.111954,2.329689 9.175171,9.16381 6.844439,15.276797 v 0 c -2.32969,6.111954 -9.164832,9.174129 -15.276786,6.844439 z"
     id="path26"
     inkscape:connector-curvature="0" /></svg>
